PathFileType	3	(X/Y/Z)	C:\Users\koon_\Desktop\
DataRate	CameraRate	NumFrames	NumMarkers	Units	OrigDataRate	OrigDataStartFrame	OrigNumFrames
100.0	100.0	14	27	mm	100.0	898	3589	
Frame#	Time	get:LFHD			get:RFHD			get:LBHD			get:RBHD			get:C7			get:T10			get:CLAV			get:STRN			get:RBAK			get:LSHO			get:LUPA			get:LELB			get:LFRA			get:LWRA			get:LWRB			get:LFIN			get:RSHO			get:RUPA			get:RELB			get:RFRA			get:RWRA			get:RWRB			get:RFIN			get:LASI			get:RASI			get:LPSI			get:RPSI			
		X1	Y1	Z1	X2	Y2	Z2	X3	Y3	Z3	X4	Y4	Z4	X5	Y5	Z5	X6	Y6	Z6	X7	Y7	Z7	X8	Y8	Z8	X9	Y9	Z9	X10	Y10	Z10	X11	Y11	Z11	X12	Y12	Z12	X13	Y13	Z13	X14	Y14	Z14	X15	Y15	Z15	X16	Y16	Z16	X17	Y17	Z17	X18	Y18	Z18	X19	Y19	Z19	X20	Y20	Z20	X21	Y21	Z21	X22	Y22	Z22	X23	Y23	Z23	X24	Y24	Z24	X25	Y25	Z25	X26	Y26	Z26	X27	Y27	Z27	
898	8.97	-18.358248	1363.9963	161.27953	-164.42831	1362.5938	146.03712	-7.7859268	1404.2329	30.065016	-158.7979	1396.1458	16.295053	-79.058769	1236.6858	-84.244667	-70.103279	1075.9922	-221.91045	-64.006119	1071.2095	48.183075	-59.165081	921.39563	3.036792	-176.32143	1181.8472	-130.50745	84.502785	1210.0663	-12.347488	157.38078	1016.0654	42.111736	212.76964	903.01813	15.938902	182.2191	949.28906	85.100594	99.234718	968.2016	224.2617	141.47473	910.34827	242.61555	130.93294	941.91003	308.4104	-206.28746	1193.1888	21.13674	-281.14252	1077.3562	29.086653	-324.7359	866.08582	-9.288065	-283.65314	935.76556	122.10086	-252.4077	962.41772	213.20306	-273.54111	892.9917	215.48619	-286.15198	944.04309	282.52231	89.549744	821.94122	-147.16272	-203.67148	819.79749	-118.56452	-22.903164	862.68713	-322.77255	-111.89042	852.09888	-317.85959
899	8.98	-18.402571	1364.302	161.67177	-164.45937	1363.066	146.12035	-7.5098076	1404.5735	30.53104	-158.50511	1396.6819	16.454702	-78.628609	1237.0215	-83.955994	-69.368088	1076.6359	-221.4814	-64.238594	1071.5269	48.781227	-59.236496	921.83612	3.243927	-176.05023	1181.8862	-129.96664	84.342125	1210.5286	-11.088374	156.46925	1017.9694	46.06385	212.41957	904.48602	23.841846	181.69484	950.77643	92.855621	98.803429	969.71594	232.34575	140.66794	911.67181	250.76497	129.76488	943.00226	316.76117	-205.89848	1193.8044	21.141329	-280.60098	1078.6953	31.036829	-324.47827	866.55579	-2.1875656	-283.70956	937.1358	128.71992	-252.54353	964.22882	219.89845	-273.80084	894.98969	222.01924	-286.41339	946.21356	289.17642	89.756828	822.34259	-146.84834	-203.76721	820.66949	-118.86246	-22.40572	863.28705	-322.51117	-111.4259	852.74341	-317.8428
900	8.99	-18.419552	1364.6987	161.98293	-164.47058	1363.6465	146.15985	-7.2698021	1404.9834	30.835701	-158.24345	1397.2584	16.598621	-78.170113	1237.4011	-83.663475	-68.621574	1077.2384	-221.11914	-64.41008	1071.8868	49.284958	-59.266613	922.32379	3.4884481	-175.69864	1182.3335	-129.80568	84.20356	1211.031	-9.9727869	155.54912	1020.319	51.148338	211.98988	906.11737	31.662308	181.22519	952.36597	100.68564	98.373535	971.26367	240.57497	139.90271	912.89001	258.9375	128.68597	944.09796	325.07156	-205.51414	1194.473	21.10911	-280.23172	1080.2095	32.777824	-324.11279	867.33282	4.84096	-283.51355	938.59747	135.6282	-252.53027	966.11194	226.77785	-274.07187	897.03833	228.67598	-286.58398	948.55505	296.09595	89.844536	822.77881	-146.51654	-203.55981	821.11017	-118.7235	-21.886574	863.92181	-322.35809	-110.91443	853.34955	-317.69754
901	9	-18.423525	1365.1733	162.23416	-164.45279	1364.3005	146.16817	-6.9816198	1405.4504	31.137638	-157.93446	1397.91	16.636497	-77.948051	1237.8403	-83.607864	-67.996346	1077.8126	-220.69907	-64.508835	1072.3815	49.736931	-59.246735	922.92694	3.6805086	-175.22842	1183.2279	-130.09991	84.109367	1211.5543	-8.851511	154.70898	1022.7947	55.838726	211.4724	907.9754	39.390999	180.666	954.00732	108.66003	97.97525	972.7536	248.75429	138.97609	914.07678	267.03314	127.7823	945.13989	333.35684	-205.0735	1195.2522	21.098415	-279.81595	1081.9948	34.699821	-323.74768	868.33319	12.04311	-283.27158	940.25958	142.67836	-252.37631	968.00848	233.77629	-274.09778	899.12097	235.42381	-286.80325	950.97015	303.06918	90.226768	823.28632	-146.20602	-203.00424	821.31641	-118.78982	-21.438923	864.49371	-322.11331	-110.44518	854.00433	-317.6264
902	9.01	-18.403076	1365.6692	162.39334	-164.40942	1364.9794	146.12871	-6.6856952	1405.9619	31.345434	-157.59779	1398.6138	16.577919	-77.569206	1238.295	-83.479317	-67.324142	1078.4886	-220.38525	-64.552361	1072.8837	50.203342	-59.264214	923.52679	3.8343906	-174.93214	1183.4706	-129.73904	84.003372	1212.0945	-7.8659792	153.87178	1025.4491	60.2313	210.81912	909.98322	47.03054	180.12857	955.74738	116.70747	97.496796	974.34253	256.87564	138.17773	915.33472	275.1073	126.87344	946.23651	341.54727	-204.63312	1196.0602	21.058218	-279.31027	1083.8475	36.592388	-323.23923	869.73322	19.056862	-282.883	942.02808	149.98135	-252.14061	969.96948	241.02292	-274.55515	900.94342	244.23376	-286.92462	953.43579	310.2771	90.57103	823.7561	-145.90236	-203.22891	822.51563	-119.02808	-20.974524	865.11487	-321.85428	-109.9806	854.64282	-317.50833
903	9.02	-18.347782	1366.2552	162.51447	-164.29817	1365.702	146.03456	-6.3895311	1406.5328	31.479631	-157.29768	1399.2977	16.598104	-76.921356	1238.8864	-83.404625	-66.705154	1079.1943	-220.08437	-64.615547	1073.5023	50.823494	-59.223503	924.13098	3.9602523	-174.48918	1184.3318	-129.86015	83.890793	1212.7078	-6.9635096	152.96059	1028.2126	64.723808	210.08156	912.14008	54.407345	179.40186	957.65161	124.70923	96.878456	975.80957	265.06839	137.35486	916.63263	283.05087	125.96854	947.48053	349.71011	-204.08945	1196.9429	21.16931	-278.74994	1085.8127	38.454632	-322.68018	871.32654	26.302179	-282.31671	943.93585	157.30649	-251.84537	971.91949	248.43816	-274.70642	903.00037	251.76089	-287.08157	955.78333	317.44806	91.093475	824.2475	-145.66501	-202.92822	823.10779	-119.18336	-20.54668	865.67084	-321.47455	-109.5025	855.29376	-317.32507
904	9.03	-18.252754	1366.9298	162.57265	-164.21185	1366.5343	145.85468	-6.0581656	1407.146	31.54619	-156.96005	1400.0844	16.33412	-76.517693	1239.4545	-83.384247	-66.112892	1079.8639	-219.73961	-64.632111	1074.1443	51.453121	-59.148594	924.8186	4.163856	-174.17296	1184.9017	-129.65599	83.773155	1213.3867	-6.1211014	151.82362	1031.0745	69.016006	209.23866	914.4682	61.639523	178.53104	959.81219	132.57645	96.081779	977.32855	273.1395	136.68796	918.1131	290.97073	124.97969	948.76056	357.68011	-203.56688	1197.8016	21.221331	-278.06244	1087.8938	40.408497	-321.99319	873.20941	33.581642	-281.79379	945.94037	164.83035	-251.59499	973.88544	256.06638	-274.83572	905.12244	259.28009	-287.19513	958.10077	324.94138	91.395836	824.71368	-145.4158	-202.72266	823.5827	-118.96907	-20.076591	866.34747	-321.30441	-109.06144	855.9472	-317.22357
905	9.04	-18.179216	1367.6271	162.56195	-164.10535	1367.375	145.63231	-5.6927748	1407.7944	31.519979	-156.6458	1400.7826	16.250172	-76.121094	1240.0078	-83.372948	-65.525871	1080.5242	-219.45415	-64.619125	1074.9171	52.285637	-59.07349	925.51807	4.3950682	-173.955	1185.2018	-129.23746	83.671364	1214.0956	-5.3172264	150.60574	1034.0739	73.116005	208.28784	917.03339	68.801765	177.5162	962.15741	140.29581	95.196213	978.74847	281.0687	136.0415	919.73633	298.72632	124.22684	950.18073	365.61298	-202.95911	1198.7184	21.214178	-277.31531	1089.9978	42.231125	-321.21722	875.32782	40.768402	-281.23273	948.03552	172.3127	-251.36629	975.8255	263.7117	-274.9408	907.22424	266.91653	-287.31686	960.21442	332.43509	91.626221	825.29492	-145.05901	-202.00377	823.52802	-118.71468	-19.637407	867.03973	-321.1178	-108.66574	856.57501	-316.99579
906	9.05	-18.051466	1368.4305	162.51552	-163.95146	1368.304	145.30037	-5.3498745	1408.4486	31.441729	-156.18588	1401.6329	15.739508	-75.015213	1240.5592	-82.901604	-64.961815	1081.2289	-219.12079	-64.51619	1075.6766	53.084797	-58.979294	926.21472	4.5290275	-173.54869	1186.2262	-129.5101	83.603661	1214.771	-4.5536828	149.31102	1037.1322	77.087189	207.32253	919.7981	75.619919	176.27405	964.64453	147.77335	94.142418	980.15454	289.01959	135.45233	921.38702	306.33554	123.38043	951.46423	373.3363	-202.31068	1199.6246	21.218199	-276.52847	1092.278	44.231651	-320.60376	877.64551	48.016499	-280.7157	950.16962	179.84447	-251.1828	977.83234	271.50803	-274.85406	909.25238	274.51727	-287.49686	962.18219	340.07413	91.825546	825.80743	-144.80855	-201.73045	824.11896	-118.7465	-19.242949	867.60583	-320.84372	-108.25703	857.23425	-316.87741
907	9.06	-17.929729	1369.2567	162.38779	-163.81088	1369.2195	144.96989	-5.0007324	1409.1399	31.290054	-155.80515	1402.4095	15.465244	-74.939537	1241.183	-83.239586	-64.442528	1081.8755	-218.83865	-64.453278	1076.5226	53.964249	-58.847179	926.95111	4.7732897	-173.36909	1186.4719	-128.99806	83.495834	1215.4982	-3.8174458	147.9073	1040.2955	80.984528	206.27596	922.745	82.482315	174.92018	967.26678	155.2012	93.230515	981.47601	296.73242	134.92564	923.05493	313.85223	122.75287	952.85333	381.05582	-201.61592	1200.5693	21.277884	-275.67471	1094.5376	46.147789	-319.49677	880.14728	55.192436	-280.16357	952.37238	187.81599	-250.95805	979.73486	279.35602	-274.21039	911.04535	282.15472	-287.65448	964.06531	347.76102	92.285324	826.35175	-144.58748	-201.45918	824.5976	-118.52982	-18.806343	868.17877	-320.54749	-107.85822	857.82928	-316.65393
908	9.07	-17.718088	1370.0747	162.16428	-163.65965	1370.202	144.55705	-4.6288867	1409.8031	31.104843	-155.46175	1403.1979	15.201874	-74.476112	1241.7755	-83.253067	-63.836208	1082.5323	-218.59421	-64.404305	1077.3906	54.869793	-58.678165	927.68689	4.9245591	-173.05794	1187.0837	-128.89655	83.380249	1216.2269	-3.0976841	146.35205	1043.4896	84.562309	205.14433	925.84973	89.126633	173.39526	969.90234	162.50694	92.447235	982.89539	304.32916	134.34634	924.65729	321.24551	122.07124	954.14862	388.64221	-200.92706	1201.5496	21.343206	-274.77478	1096.9363	48.089611	-318.43234	882.81348	62.28981	-279.55951	954.6571	195.44417	-250.63351	981.65979	287.44989	-274.35873	913.10498	289.84543	-287.73096	965.9057	355.47668	91.480659	826.60828	-144.21762	-201.17981	825.12872	-118.49703	-18.410433	868.82117	-320.34265	-107.4427	858.45435	-316.44983
909	9.08	-17.599583	1370.9954	161.9549	-163.4472	1371.2299	144.14772	-4.2756915	1410.5342	30.84535	-155.09679	1404.0297	14.688668	-74.00547	1242.2969	-83.325768	-63.302917	1083.1926	-218.30028	-64.300446	1077.7349	53.675224	-58.541336	928.41321	5.1127281	-172.74544	1187.7191	-128.81145	83.30751	1216.9595	-2.4802275	144.71657	1046.803	88.194519	203.84566	928.98993	95.642265	171.93147	972.61267	169.70161	91.818886	984.20862	311.82895	133.93028	926.15192	328.45117	121.47071	955.33453	396.11792	-200.20479	1202.4644	21.30048	-273.96786	1099.3475	49.864029	-317.40164	885.69794	69.355186	-278.99097	957.01685	203.22139	-250.27582	983.53027	295.36319	-273.83438	914.94299	297.38348	-287.68945	967.65204	363.25824	91.722878	827.12738	-143.93054	-200.89758	825.77423	-118.42171	-18.049141	869.48309	-320.19485	-107.0675	859.16852	-316.35788
910	9.09	-17.433823	1371.9617	161.62939	-163.25993	1372.2407	143.64713	-3.8743105	1411.2262	30.519968	-154.64604	1404.8364	14.137185	-73.154198	1242.8679	-83.114639	-62.783985	1083.912	-218.02533	-64.197784	1078.4445	53.775276	-58.28273	928.79028	4.7404947	-172.50165	1188.3604	-128.64584	83.232941	1217.6849	-1.8431767	142.85123	1050.1841	91.593262	202.42149	932.06573	101.893	170.50923	975.30444	176.58434	90.515167	985.30707	319.62003	133.67973	927.62762	335.51709	121.13425	956.48413	403.52692	-199.4267	1203.3702	21.256636	-273.08362	1101.6783	51.556961	-316.24887	888.71338	76.258934	-278.2023	959.4024	211.03839	-249.88106	985.33148	303.57004	-274.14709	916.94647	305.08142	-287.6344	969.3833	371.26779	92.114243	827.81512	-143.76672	-200.67532	826.2937	-118.3055	-17.709028	870.12939	-320.03131	-106.72897	859.79309	-316.17499
911	9.1	-17.254812	1372.9111	161.33635	-163.05411	1373.3115	143.1091	-3.4739442	1411.9492	30.062944	-154.24734	1405.6367	13.583273	-72.677231	1243.4666	-83.170166	-62.213676	1084.5464	-217.75427	-64.080292	1079.1749	54.095734	-58.020012	929.46606	5.142787	-172.14284	1189.0081	-128.62189	83.120834	1218.4335	-1.1856122	141.12135	1053.4492	94.765083	200.84637	935.3363	107.7694	168.77808	978.07849	183.34482	89.715195	986.23322	327.15588	133.5623	928.94568	342.4245	120.90993	957.45227	410.85208	-198.64551	1204.229	21.266771	-272.19812	1104.0553	53.190685	-315.06415	891.89484	83.125771	-277.36707	961.8291	219.00072	-249.43414	986.99707	311.81015	-274.24478	918.79016	312.75784	-287.52606	970.93982	379.24179	92.188187	828.23163	-143.5321	-200.39204	826.84766	-118.22413	-17.380882	870.69708	-319.74609	-106.37184	860.35565	-315.95715
